<svg width="20" height="22" viewBox="0 0 20 22" fill="none" xmlns="http://www.w3.org/2000/svg">
<path d="M13.2127 3.43986C13.2127 5.33746 11.7723 6.87972 9.99992 6.87972C8.22758 6.87972 6.78711 5.33746 6.78711 3.43986C6.78711 1.54227 8.22758 0 9.99992 0C11.7723 0 13.2127 1.54227 13.2127 3.43986Z" fill="#1E727E"/>
<path d="M19.9986 11.4766C20.0088 11.5938 19.9629 11.7148 19.8785 11.7904L17.3436 14.1605C17.2377 14.2588 17.0894 14.2814 16.9662 14.221L14.4807 13.0227V21.6223C14.4807 21.8302 14.3218 22.0003 14.1276 22.0003H5.87282C5.67864 22.0003 5.51977 21.8302 5.51977 21.6223V13.0227L3.03425 14.221C2.91068 14.2814 2.7624 14.2588 2.65648 14.1605L0.121543 11.7904C0.0368099 11.7148 -0.00908735 11.5938 0.00150433 11.4766C0.012096 11.3557 0.075646 11.2461 0.170971 11.1856L5.54095 7.67011C5.59391 7.63609 5.65746 7.61719 5.72454 7.61719H8.90557C9.04326 7.61719 9.16683 7.70035 9.22332 7.82887L9.98592 9.511L10.6461 7.89313C10.7167 7.67389 11.0239 7.61719 11.0945 7.61719H14.2759C14.3395 7.61719 14.4065 7.63609 14.4595 7.67011L19.8295 11.1856C19.928 11.2461 19.988 11.3557 19.9986 11.4766Z" fill="#1E727E"/>
</svg>
