<svg width="21" height="20" viewBox="0 0 21 20" fill="none" xmlns="http://www.w3.org/2000/svg">
<path d="M10.6402 8.85692C10.5527 8.84878 10.4477 8.84878 10.3515 8.85692C8.26898 8.79174 6.61523 7.20285 6.61523 5.24729C6.61523 3.251 8.34773 1.62952 10.5002 1.62952C12.644 1.62952 14.3852 3.251 14.3852 5.24729C14.3765 7.20285 12.7227 8.79174 10.6402 8.85692Z" stroke="#1E727E" stroke-width="1.5" stroke-linecap="round" stroke-linejoin="round"/>
<path d="M6.26488 11.8636C4.14738 13.1836 4.14738 15.3347 6.26488 16.6465C8.67113 18.1458 12.6174 18.1458 15.0236 16.6465C17.1411 15.3265 17.1411 13.1754 15.0236 11.8636C12.6261 10.3725 8.67988 10.3725 6.26488 11.8636Z" stroke="#1E727E" stroke-width="1.5" stroke-linecap="round" stroke-linejoin="round"/>
</svg>
