<svg width="19" height="21" viewBox="0 0 19 21" fill="none" xmlns="http://www.w3.org/2000/svg">
<path d="M4.9707 9.22228C4.9707 10.1013 5.24929 10.9606 5.77122 11.6915C6.29316 12.4224 7.03501 12.992 7.90296 13.3284C8.7709 13.6648 9.72597 13.7528 10.6474 13.5813C11.5688 13.4098 12.4152 12.9865 13.0795 12.365C13.7438 11.7434 14.1962 10.9515 14.3794 10.0893C14.5627 9.22721 14.4686 8.33358 14.1091 7.52146C13.7496 6.70934 13.1408 6.01522 12.3597 5.52686C11.5785 5.03849 10.6602 4.77783 9.7207 4.77783C8.46136 4.77917 7.25401 5.24785 6.36352 6.08105C5.47303 6.91426 4.97213 8.04395 4.9707 9.22228ZM10.9874 5.55887V5.76242L9.7207 6.2365L8.45404 5.76242V5.55887C9.27714 5.30768 10.1643 5.30768 10.9874 5.55887ZM13.3798 10.7535C13.3452 10.732 13.3063 10.717 13.2655 10.7095C13.2247 10.702 13.1827 10.702 13.142 10.7097L11.7249 10.9749L11.0422 10.3361L11.5533 9.1405L12.5074 8.69398L13.2959 9.43176C13.3254 9.45938 13.3604 9.48127 13.399 9.49617C13.4376 9.51107 13.479 9.51868 13.5207 9.51857H13.8212C13.785 9.96454 13.6654 10.4011 13.4678 10.8083L13.3798 10.7535ZM7.71652 10.9749L6.3007 10.7097C6.25993 10.702 6.21794 10.702 6.17713 10.7095C6.13633 10.717 6.09751 10.732 6.06289 10.7535L5.97485 10.8083C5.77681 10.4012 5.65676 9.96462 5.62019 9.51857H5.9207C6.00468 9.51856 6.08521 9.48733 6.14459 9.43176L6.93309 8.69398L7.88815 9.1405L8.39925 10.3361L7.71652 10.9749ZM8.01957 6.23828L9.40404 6.7562V7.59828L8.09779 8.57605L7.22854 8.16953L7.4977 6.90998C7.50777 6.86231 7.50515 6.81305 7.49007 6.76654C7.475 6.72004 7.44793 6.67772 7.41125 6.64331L7.04582 6.30139C7.2832 6.11004 7.54318 5.94472 7.8207 5.80865V5.96302C7.82065 6.02224 7.83957 6.08012 7.87502 6.12918C7.91047 6.17825 7.96082 6.21625 8.01957 6.23828ZM6.84379 6.94939L6.57905 8.18731L5.7896 8.92598H5.62019C5.68636 8.11178 6.02887 7.33868 6.59774 6.71946L6.84379 6.94939ZM8.98509 10.1112L8.51737 9.01991L9.7207 8.12005L10.924 9.01991L10.4563 10.1112H8.98509ZM13.6518 8.92598L12.8624 8.18731L12.5976 6.94939L12.8437 6.71946C13.4125 7.33868 13.755 8.11178 13.8212 8.92598H13.6518ZM11.9437 6.91117L12.2129 8.17072L11.3436 8.57724L10.0374 7.59828V6.7562L11.4218 6.23828C11.4806 6.21625 11.5309 6.17825 11.5664 6.12918C11.6018 6.08012 11.6207 6.02224 11.6207 5.96302V5.80865C11.8982 5.94444 12.1582 6.10946 12.3956 6.3005L12.0302 6.64242C11.9931 6.67704 11.9658 6.71971 11.9508 6.76661C11.9357 6.81351 11.9333 6.86317 11.9437 6.91117ZM6.27917 11.3298L6.30387 11.3147L7.59049 11.5553L8.08259 12.7064L8.04807 12.7384C7.32672 12.4367 6.71287 11.9478 6.27917 11.3298ZM8.70737 12.9512C8.73942 12.9111 8.76005 12.8641 8.76731 12.8146C8.77457 12.765 8.76821 12.7145 8.74885 12.6679L8.19279 11.3678L8.9018 10.7038H10.5396L11.2493 11.3678L10.6932 12.6679C10.6738 12.7145 10.6675 12.765 10.6747 12.8146C10.682 12.8641 10.7026 12.9111 10.7347 12.9512C10.0704 13.1149 9.37222 13.1149 8.708 12.9512H8.70737ZM11.394 12.7384L11.3595 12.7064L11.8516 11.5553L13.1382 11.3147L13.1629 11.3298C12.729 11.9479 12.1149 12.4368 11.3933 12.7384H11.394Z" fill="#1E727E"/>
<path d="M3.08486 0.5H15.9151C15.9608 1.07493 16.2624 1.59634 16.7277 1.97287C17.2135 2.36596 17.8489 2.58116 18.5 2.59572V13.9763C18.4992 14.8664 18.1936 15.749 17.6016 16.526C17.0096 17.3029 16.1532 17.9445 15.1173 18.3678L9.49996 20.4663L3.88725 18.3706C2.85009 17.9474 1.99246 17.3056 1.39963 16.5281C0.806783 15.7506 0.50081 14.8673 0.5 13.9765V2.59572C1.15112 2.58116 1.7865 2.36596 2.27229 1.97287C2.73761 1.59634 3.03919 1.07493 3.08486 0.5Z" stroke="#1E727E"/>
<path d="M4.52359 3.07422H3.70117V3.7221H4.52359V3.07422Z" fill="#1E727E"/>
<path d="M6.16812 3.07422H5.3457V3.7221H6.16812V3.07422Z" fill="#1E727E"/>
<path d="M11.1027 3.07422H10.2803V3.7221H11.1027V3.07422Z" fill="#1E727E"/>
<path d="M12.7472 3.07422H11.9248V3.7221H12.7472V3.07422Z" fill="#1E727E"/>
<path d="M14.3927 3.07422H13.5703V3.7221H14.3927V3.07422Z" fill="#1E727E"/>
<path d="M7.81265 3.07422H6.99023V3.7221H7.81265V3.07422Z" fill="#1E727E"/>
<path d="M13.5214 15.5689L9.61045 17.127L5.70394 15.5721C5.12154 15.3451 4.62427 14.9783 4.26955 14.514C3.91483 14.0497 3.71715 13.5069 3.69934 12.9482H2.96045C2.97908 13.6302 3.21747 14.2935 3.64805 14.8616C4.07863 15.4297 4.68381 15.8793 5.39361 16.1585L9.61045 17.8397L13.8317 16.1572C14.5406 15.8777 15.1448 15.428 15.5746 14.8602C16.0043 14.2924 16.2421 13.6295 16.2604 12.9482H15.5216C15.5036 13.5059 15.3063 14.0478 14.9525 14.5115C14.5986 14.9751 14.1025 15.3417 13.5214 15.5689Z" fill="#1E727E"/>
</svg>
